<svg xmlns="http://www.w3.org/2000/svg" viewBox="0 0 24 24">
  <path fill="#98A1AD" d="M12 7a5 5 0 015 5c0 .65-.13 1.26-.36 1.83l2.92 2.92A11.8 11.8 0 0023 12c-1.73-4.39-6-7.5-11-7.5-1.27 0-2.49.2-3.64.57l2.17 2.17C11.1 7.08 11.54 7 12 7zM2 4.27l2.28 2.28.46.46A11.8 11.8 0 001 12c1.73 4.39 6 7.5 11 7.5 1.55 0 3.03-.3 4.38-.84l.42.42L19.73 22 21 20.73 3.27 3 2 4.27zM7.53 9.8l1.55 1.55c-.05.21-.08.43-.08.65a3 3 0 003 3c.22 0 .44-.03.65-.08l1.55 1.55c-.67.33-1.41.53-2.2.53a5 5 0 01-5-5c0-.79.2-1.53.53-2.2zm4.31-.78l3.15 3.15.02-.16a3 3 0 00-3-3l-.17.01z"/>
</svg>
